<svg id="visual" viewBox="0 0 900 600" width="900" height="600" xmlns="http://www.w3.org/2000/svg" xmlns:xlink="http://www.w3.org/1999/xlink" version="1.1"><rect x="0" y="0" width="900" height="600" fill="#5368ff"></rect><defs><linearGradient id="grad1_0" x1="33.3%" y1="0%" x2="100%" y2="100%"><stop offset="20%" stop-color="#260d97" stop-opacity="1"></stop><stop offset="80%" stop-color="#260d97" stop-opacity="1"></stop></linearGradient></defs><defs><linearGradient id="grad1_1" x1="33.3%" y1="0%" x2="100%" y2="100%"><stop offset="20%" stop-color="#260d97" stop-opacity="1"></stop><stop offset="80%" stop-color="#3327b0" stop-opacity="1"></stop></linearGradient></defs><defs><linearGradient id="grad1_2" x1="33.3%" y1="0%" x2="100%" y2="100%"><stop offset="20%" stop-color="#3e3dca" stop-opacity="1"></stop><stop offset="80%" stop-color="#3327b0" stop-opacity="1"></stop></linearGradient></defs><defs><linearGradient id="grad1_3" x1="33.3%" y1="0%" x2="100%" y2="100%"><stop offset="20%" stop-color="#3e3dca" stop-opacity="1"></stop><stop offset="80%" stop-color="#4952e4" stop-opacity="1"></stop></linearGradient></defs><defs><linearGradient id="grad1_4" x1="33.3%" y1="0%" x2="100%" y2="100%"><stop offset="20%" stop-color="#5368ff" stop-opacity="1"></stop><stop offset="80%" stop-color="#4952e4" stop-opacity="1"></stop></linearGradient></defs><defs><linearGradient id="grad2_0" x1="0%" y1="0%" x2="66.7%" y2="100%"><stop offset="20%" stop-color="#260d97" stop-opacity="1"></stop><stop offset="80%" stop-color="#260d97" stop-opacity="1"></stop></linearGradient></defs><defs><linearGradient id="grad2_1" x1="0%" y1="0%" x2="66.7%" y2="100%"><stop offset="20%" stop-color="#3327b0" stop-opacity="1"></stop><stop offset="80%" stop-color="#260d97" stop-opacity="1"></stop></linearGradient></defs><defs><linearGradient id="grad2_2" x1="0%" y1="0%" x2="66.7%" y2="100%"><stop offset="20%" stop-color="#3327b0" stop-opacity="1"></stop><stop offset="80%" stop-color="#3e3dca" stop-opacity="1"></stop></linearGradient></defs><defs><linearGradient id="grad2_3" x1="0%" y1="0%" x2="66.7%" y2="100%"><stop offset="20%" stop-color="#4952e4" stop-opacity="1"></stop><stop offset="80%" stop-color="#3e3dca" stop-opacity="1"></stop></linearGradient></defs><defs><linearGradient id="grad2_4" x1="0%" y1="0%" x2="66.7%" y2="100%"><stop offset="20%" stop-color="#4952e4" stop-opacity="1"></stop><stop offset="80%" stop-color="#5368ff" stop-opacity="1"></stop></linearGradient></defs><g transform="translate(900, 0)"><path d="M0 432.7C-37.9 410 -75.8 387.4 -123.3 379.5C-170.8 371.6 -227.9 378.4 -254.3 350C-280.8 321.7 -276.5 258.1 -301 218.7C-325.4 179.3 -378.4 164.1 -405.2 131.6C-431.9 99.2 -432.3 49.6 -432.7 0L0 0Z" fill="#4e5df2"></path><path d="M0 346.1C-30.3 328 -60.6 309.9 -98.6 303.6C-136.6 297.3 -182.3 302.7 -203.5 280C-224.6 257.3 -221.2 206.4 -240.8 174.9C-260.3 143.4 -302.7 131.2 -324.1 105.3C-345.5 79.4 -345.8 39.7 -346.1 0L0 0Z" fill="#4447d7"></path><path d="M0 259.6C-22.7 246 -45.5 232.4 -74 227.7C-102.5 222.9 -136.7 227 -152.6 210C-168.5 193 -165.9 154.8 -180.6 131.2C-195.2 107.6 -227.1 98.4 -243.1 79C-259.1 59.5 -259.4 29.8 -259.6 0L0 0Z" fill="#3832bd"></path><path d="M0 173.1C-15.2 164 -30.3 154.9 -49.3 151.8C-68.3 148.6 -91.2 151.4 -101.7 140C-112.3 128.7 -110.6 103.2 -120.4 87.5C-130.1 71.7 -151.4 65.6 -162.1 52.7C-172.7 39.7 -172.9 19.8 -173.1 0L0 0Z" fill="#2c1ba4"></path><path d="M0 86.5C-7.6 82 -15.2 77.5 -24.7 75.9C-34.2 74.3 -45.6 75.7 -50.9 70C-56.2 64.3 -55.3 51.6 -60.2 43.7C-65.1 35.9 -75.7 32.8 -81 26.3C-86.4 19.8 -86.5 9.9 -86.5 0L0 0Z" fill="#260d97"></path></g><g transform="translate(0, 600)"><path d="M0 -432.7C38.4 -402.4 76.7 -372.2 115.6 -355.7C154.4 -339.2 193.8 -336.5 235.1 -323.6C276.5 -310.7 319.8 -287.7 350 -254.3C380.3 -220.9 397.4 -177 409 -132.9C420.5 -88.8 426.6 -44.4 432.7 0L0 0Z" fill="#4e5df2"></path><path d="M0 -346.1C30.7 -321.9 61.4 -297.7 92.5 -284.6C123.5 -271.4 155 -269.2 188.1 -258.9C221.2 -248.6 255.8 -230.2 280 -203.5C304.2 -176.7 317.9 -141.6 327.2 -106.3C336.4 -71 341.3 -35.5 346.1 0L0 0Z" fill="#4447d7"></path><path d="M0 -259.6C23 -241.5 46 -223.3 69.3 -213.4C92.7 -203.5 116.3 -201.9 141.1 -194.2C165.9 -186.4 191.9 -172.6 210 -152.6C228.2 -132.5 238.4 -106.2 245.4 -79.7C252.3 -53.3 256 -26.6 259.6 0L0 0Z" fill="#3832bd"></path><path d="M0 -173.1C15.3 -161 30.7 -148.9 46.2 -142.3C61.8 -135.7 77.5 -134.6 94 -129.4C110.6 -124.3 127.9 -115.1 140 -101.7C152.1 -88.4 158.9 -70.8 163.6 -53.2C168.2 -35.5 170.6 -17.8 173.1 0L0 0Z" fill="#2c1ba4"></path><path d="M0 -86.5C7.7 -80.5 15.3 -74.4 23.1 -71.1C30.9 -67.8 38.8 -67.3 47 -64.7C55.3 -62.1 64 -57.5 70 -50.9C76.1 -44.2 79.5 -35.4 81.8 -26.6C84.1 -17.8 85.3 -8.9 86.5 0L0 0Z" fill="#260d97"></path></g></svg>